<svg width="24" height="24" viewBox="0 0 24 24" fill="none" xmlns="http://www.w3.org/2000/svg">
<rect width="24" height="24" rx="2" fill="black"/>
<rect width="24" height="24" rx="2" fill="#2A59FE" fill-opacity="0.3"/>
<rect width="24" height="24" rx="2" fill="white" fill-opacity="0.95"/>
<path fill-rule="evenodd" clip-rule="evenodd" d="M15.5286 7.52864C15.789 7.26829 16.2111 7.26829 16.4714 7.52864C16.7318 7.78899 16.7318 8.2111 16.4714 8.47145L12.9428 12L16.4714 15.5286C16.7318 15.789 16.7318 16.2111 16.4714 16.4714C16.2111 16.7318 15.789 16.7318 15.5286 16.4714L12 12.9428L8.47145 16.4714C8.2111 16.7318 7.78899 16.7318 7.52864 16.4714C7.26829 16.2111 7.26829 15.789 7.52864 15.5286L11.0572 12L7.52864 8.47145C7.26829 8.2111 7.26829 7.78899 7.52864 7.52864C7.78899 7.26829 8.2111 7.26829 8.47145 7.52864L12 11.0572L15.5286 7.52864Z" fill="black"/>
<path fill-rule="evenodd" clip-rule="evenodd" d="M15.5286 7.52864C15.789 7.26829 16.2111 7.26829 16.4714 7.52864C16.7318 7.78899 16.7318 8.2111 16.4714 8.47145L12.9428 12L16.4714 15.5286C16.7318 15.789 16.7318 16.2111 16.4714 16.4714C16.2111 16.7318 15.789 16.7318 15.5286 16.4714L12 12.9428L8.47145 16.4714C8.2111 16.7318 7.78899 16.7318 7.52864 16.4714C7.26829 16.2111 7.26829 15.789 7.52864 15.5286L11.0572 12L7.52864 8.47145C7.26829 8.2111 7.26829 7.78899 7.52864 7.52864C7.78899 7.26829 8.2111 7.26829 8.47145 7.52864L12 11.0572L15.5286 7.52864Z" fill="#2A59FE" fill-opacity="0.3"/>
<path fill-rule="evenodd" clip-rule="evenodd" d="M15.5286 7.52864C15.789 7.26829 16.2111 7.26829 16.4714 7.52864C16.7318 7.78899 16.7318 8.2111 16.4714 8.47145L12.9428 12L16.4714 15.5286C16.7318 15.789 16.7318 16.2111 16.4714 16.4714C16.2111 16.7318 15.789 16.7318 15.5286 16.4714L12 12.9428L8.47145 16.4714C8.2111 16.7318 7.78899 16.7318 7.52864 16.4714C7.26829 16.2111 7.26829 15.789 7.52864 15.5286L11.0572 12L7.52864 8.47145C7.26829 8.2111 7.26829 7.78899 7.52864 7.52864C7.78899 7.26829 8.2111 7.26829 8.47145 7.52864L12 11.0572L15.5286 7.52864Z" fill="white" fill-opacity="0.35"/>
</svg>
