<svg width="275" height="40" viewBox="0 0 275 40" fill="none" xmlns="http://www.w3.org/2000/svg">
<path d="M5.25 15.75L0.75 20L5.25 24.25" stroke="#9CA3AF" stroke-width="1.5" stroke-linecap="round" stroke-linejoin="round"/>
<path d="M26.37 17.216C26.6793 17.088 26.9993 16.944 27.33 16.784C27.6713 16.6133 28.002 16.432 28.322 16.24C28.642 16.0373 28.946 15.8293 29.234 15.616C29.5327 15.392 29.7993 15.1573 30.034 14.912H31.698V26H29.314V18.016C28.994 18.2293 28.6367 18.4267 28.242 18.608C27.8473 18.7787 27.4633 18.928 27.09 19.056L26.37 17.216Z" fill="#9CA3AF"/>
<rect x="55.25" width="40" height="40" rx="7" fill="#116ACC"/>
<path d="M78.186 17.824C78.186 18.2293 78.106 18.6187 77.946 18.992C77.786 19.3653 77.578 19.728 77.322 20.08C77.066 20.4213 76.778 20.752 76.458 21.072C76.138 21.392 75.8233 21.696 75.514 21.984C75.354 22.1333 75.178 22.304 74.986 22.496C74.8047 22.6773 74.6287 22.864 74.458 23.056C74.2873 23.248 74.1327 23.4293 73.994 23.6C73.866 23.76 73.786 23.8933 73.754 24H78.522V26H71.13C71.1087 25.8827 71.098 25.7333 71.098 25.552C71.098 25.3707 71.098 25.2427 71.098 25.168C71.098 24.656 71.178 24.1867 71.338 23.76C71.5087 23.3333 71.7273 22.9387 71.994 22.576C72.2607 22.2027 72.5593 21.856 72.89 21.536C73.2313 21.216 73.5673 20.896 73.898 20.576C74.154 20.3307 74.394 20.1013 74.618 19.888C74.842 19.664 75.0393 19.4507 75.21 19.248C75.3807 19.0347 75.514 18.8267 75.61 18.624C75.706 18.4107 75.754 18.1973 75.754 17.984C75.754 17.5147 75.6207 17.184 75.354 16.992C75.0873 16.8 74.7567 16.704 74.362 16.704C74.074 16.704 73.802 16.752 73.546 16.848C73.3007 16.9333 73.0713 17.04 72.858 17.168C72.6553 17.2853 72.4793 17.408 72.33 17.536C72.1807 17.6533 72.0687 17.7493 71.994 17.824L70.81 16.16C71.2793 15.7227 71.8233 15.3653 72.442 15.088C73.0713 14.8 73.7433 14.656 74.458 14.656C75.1087 14.656 75.6687 14.7307 76.138 14.88C76.6073 15.0293 76.9913 15.2427 77.29 15.52C77.5993 15.7867 77.8233 16.1173 77.962 16.512C78.1113 16.896 78.186 17.3333 78.186 17.824Z" fill="white"/>
<path d="M118.898 26.24C118.61 26.24 118.306 26.2187 117.986 26.176C117.666 26.144 117.357 26.096 117.058 26.032C116.759 25.968 116.487 25.8987 116.242 25.824C115.997 25.7493 115.805 25.68 115.666 25.616L116.13 23.632C116.407 23.7493 116.759 23.8773 117.186 24.016C117.623 24.144 118.162 24.208 118.802 24.208C119.538 24.208 120.077 24.0693 120.418 23.792C120.759 23.5147 120.93 23.1413 120.93 22.672C120.93 22.384 120.866 22.144 120.738 21.952C120.621 21.7493 120.455 21.5893 120.242 21.472C120.029 21.344 119.773 21.2587 119.474 21.216C119.186 21.1627 118.877 21.136 118.546 21.136H117.618V19.216H118.674C118.909 19.216 119.133 19.1947 119.346 19.152C119.57 19.1093 119.767 19.04 119.938 18.944C120.109 18.8373 120.242 18.6987 120.338 18.528C120.445 18.3467 120.498 18.1227 120.498 17.856C120.498 17.6533 120.455 17.4773 120.37 17.328C120.285 17.1787 120.173 17.056 120.034 16.96C119.906 16.864 119.751 16.7947 119.57 16.752C119.399 16.6987 119.223 16.672 119.042 16.672C118.583 16.672 118.157 16.7413 117.762 16.88C117.378 17.0187 117.026 17.1893 116.706 17.392L115.858 15.648C116.029 15.5413 116.226 15.4293 116.45 15.312C116.685 15.1947 116.941 15.088 117.218 14.992C117.495 14.896 117.789 14.816 118.098 14.752C118.418 14.688 118.754 14.656 119.106 14.656C119.757 14.656 120.317 14.736 120.786 14.896C121.266 15.0453 121.661 15.264 121.97 15.552C122.279 15.8293 122.509 16.16 122.658 16.544C122.807 16.9173 122.882 17.328 122.882 17.776C122.882 18.2133 122.759 18.64 122.514 19.056C122.269 19.4613 121.938 19.7707 121.522 19.984C122.098 20.2187 122.541 20.5707 122.85 21.04C123.17 21.4987 123.33 22.0533 123.33 22.704C123.33 23.216 123.245 23.6907 123.074 24.128C122.903 24.5547 122.637 24.928 122.274 25.248C121.911 25.5573 121.447 25.8027 120.882 25.984C120.327 26.1547 119.666 26.24 118.898 26.24Z" fill="#9CA3AF"/>
<path d="M150.354 17.824C149.938 18.368 149.495 18.96 149.026 19.6C148.557 20.24 148.162 20.896 147.842 21.568H150.354V17.824ZM152.69 14.912V21.568H153.874V23.52H152.69V26H150.354V23.52H145.57V21.776C145.805 21.3067 146.098 20.7787 146.45 20.192C146.802 19.5947 147.191 18.9867 147.618 18.368C148.055 17.7387 148.514 17.1253 148.994 16.528C149.474 15.9307 149.954 15.392 150.434 14.912H152.69Z" fill="#9CA3AF"/>
<path d="M181.01 22.736C181.01 22.4267 180.941 22.1547 180.802 21.92C180.663 21.6747 180.423 21.472 180.082 21.312C179.741 21.152 179.282 21.0293 178.706 20.944C178.13 20.8587 177.405 20.816 176.53 20.816C176.647 19.824 176.743 18.816 176.818 17.792C176.893 16.768 176.951 15.808 176.994 14.912H182.994V16.912H178.994C178.973 17.296 178.946 17.6693 178.914 18.032C178.893 18.384 178.866 18.6933 178.834 18.96C180.391 19.0667 181.538 19.4347 182.274 20.064C183.021 20.6827 183.394 21.5467 183.394 22.656C183.394 23.168 183.303 23.6427 183.122 24.08C182.941 24.5173 182.669 24.896 182.306 25.216C181.943 25.536 181.485 25.7867 180.93 25.968C180.386 26.1493 179.746 26.24 179.01 26.24C178.722 26.24 178.418 26.2187 178.098 26.176C177.789 26.144 177.485 26.096 177.186 26.032C176.898 25.9787 176.637 25.92 176.402 25.856C176.167 25.792 175.986 25.728 175.858 25.664L176.29 23.696C176.557 23.8133 176.909 23.9307 177.346 24.048C177.783 24.1547 178.306 24.208 178.914 24.208C179.65 24.208 180.183 24.064 180.514 23.776C180.845 23.4773 181.01 23.1307 181.01 22.736Z" fill="#9CA3AF"/>
<path d="M209.634 20.784C209.399 20.784 209.149 20.8053 208.882 20.848C208.615 20.8907 208.407 20.9493 208.258 21.024C208.258 21.0667 208.253 21.1307 208.242 21.216C208.242 21.3013 208.242 21.376 208.242 21.44C208.242 21.824 208.269 22.1867 208.322 22.528C208.375 22.8693 208.466 23.168 208.594 23.424C208.722 23.68 208.893 23.8827 209.106 24.032C209.319 24.1707 209.586 24.24 209.906 24.24C210.173 24.24 210.397 24.1867 210.578 24.08C210.77 23.9627 210.925 23.8187 211.042 23.648C211.17 23.4773 211.261 23.2907 211.314 23.088C211.378 22.8747 211.41 22.672 211.41 22.48C211.41 21.936 211.271 21.52 210.994 21.232C210.727 20.9333 210.274 20.784 209.634 20.784ZM209.938 18.928C210.631 18.928 211.218 19.024 211.698 19.216C212.189 19.3973 212.589 19.648 212.898 19.968C213.207 20.288 213.431 20.6613 213.57 21.088C213.709 21.5147 213.778 21.968 213.778 22.448C213.778 22.8747 213.698 23.312 213.538 23.76C213.389 24.208 213.154 24.6133 212.834 24.976C212.525 25.3387 212.125 25.6373 211.634 25.872C211.154 26.1067 210.583 26.224 209.922 26.224C208.589 26.224 207.575 25.8027 206.882 24.96C206.189 24.1173 205.842 22.9547 205.842 21.472C205.842 20.4053 206.007 19.4613 206.338 18.64C206.669 17.8187 207.138 17.1307 207.746 16.576C208.365 16.0107 209.106 15.584 209.97 15.296C210.845 14.9973 211.826 14.8427 212.914 14.832C212.935 15.1627 212.957 15.488 212.978 15.808C212.999 16.1173 213.021 16.4427 213.042 16.784C212.498 16.7947 211.986 16.848 211.506 16.944C211.037 17.0293 210.605 17.168 210.21 17.36C209.826 17.552 209.49 17.8027 209.202 18.112C208.914 18.4107 208.69 18.7787 208.53 19.216C208.765 19.1093 209.005 19.0347 209.25 18.992C209.495 18.9493 209.725 18.928 209.938 18.928Z" fill="#9CA3AF"/>
<path d="M237.506 22.802C237.933 22.802 238.269 22.9193 238.514 23.154C238.77 23.3887 238.898 23.7033 238.898 24.098C238.898 24.5033 238.77 24.8233 238.514 25.058C238.269 25.282 237.933 25.394 237.506 25.394C237.069 25.394 236.727 25.282 236.482 25.058C236.237 24.8233 236.114 24.5033 236.114 24.098C236.114 23.7033 236.237 23.3887 236.482 23.154C236.727 22.9193 237.069 22.802 237.506 22.802ZM242.006 22.802C242.433 22.802 242.769 22.9193 243.014 23.154C243.27 23.3887 243.398 23.7033 243.398 24.098C243.398 24.5033 243.27 24.8233 243.014 25.058C242.769 25.282 242.433 25.394 242.006 25.394C241.569 25.394 241.227 25.282 240.982 25.058C240.737 24.8233 240.614 24.5033 240.614 24.098C240.614 23.7033 240.737 23.3887 240.982 23.154C241.227 22.9193 241.569 22.802 242.006 22.802ZM246.506 22.802C246.933 22.802 247.269 22.9193 247.514 23.154C247.77 23.3887 247.898 23.7033 247.898 24.098C247.898 24.5033 247.77 24.8233 247.514 25.058C247.269 25.282 246.933 25.394 246.506 25.394C246.069 25.394 245.727 25.282 245.482 25.058C245.237 24.8233 245.114 24.5033 245.114 24.098C245.114 23.7033 245.237 23.3887 245.482 23.154C245.727 22.9193 246.069 22.802 246.506 22.802Z" fill="#9CA3AF"/>
<path d="M269.25 24.25L273.75 20L269.25 15.75" stroke="#9CA3AF" stroke-width="1.5" stroke-linecap="round" stroke-linejoin="round"/>
</svg>
